# xmcd
#
# Track frame offsets:
#  225
#  23508
#  40389
#  59591
#  98897
#  118260
#  135628
#  158104
#  173242
#  193130
#  218492
#  230806
#  255712
#
# Disc length: 3801 seconds
#
# Revision: 0
# Processed by: cddbd v1.5.2PL0 Copyright (c) Steve Scherf et al.
# Submitted via: AltoMP3_Maker 3.0
#
DISCID=bb0ed60d
DTITLE=Jason Lowe - Grey Cap times
DYEAR=1900
DGENRE=
TTITLE0=Long Back in mile
TTITLE1=Girl from the southland
TTITLE2=Grey in cisco green in eugene
TTITLE3=Roamin man blues
TTITLE4=Gone by Mornin
TTITLE5=May your divine
TTITLE6=Just like rain drops
TTITLE7=All comes in time
TTITLE8=Light of the known
TTITLE9=Stone
TTITLE10=Many a so long
TTITLE11=PLace of Time
TTITLE12=Leaves of fall
EXTD=
EXTT0=
EXTT1=
EXTT2=
EXTT3=
EXTT4=
EXTT5=
EXTT6=
EXTT7=
EXTT8=
EXTT9=
EXTT10=
EXTT11=
EXTT12=
PLAYORDER=
